<?xml version="1.0" encoding="UTF-8" standalone="no"?>
<svg
   fill="currentColor"
   version="1.1"
   width="16"
   height="16"
   viewBox="0 0 16 16"
   class="octicon octicon-note"
   aria-hidden="true"
   id="svg1"
   sodipodi:docname="abstract.svg"
   inkscape:version="1.3 (0e150ed6c4, 2023-07-21)"
   xmlns:inkscape="http://www.inkscape.org/namespaces/inkscape"
   xmlns:sodipodi="http://sodipodi.sourceforge.net/DTD/sodipodi-0.dtd"
   xmlns="http://www.w3.org/2000/svg"
   xmlns:svg="http://www.w3.org/2000/svg">
  <defs
     id="defs1" />
  <sodipodi:namedview
     id="namedview1"
     pagecolor="#ffffff"
     bordercolor="#000000"
     borderopacity="0.25"
     inkscape:showpageshadow="2"
     inkscape:pageopacity="0.0"
     inkscape:pagecheckerboard="0"
     inkscape:deskcolor="#d1d1d1"
     inkscape:zoom="46.3125"
     inkscape:cx="8"
     inkscape:cy="8"
     inkscape:window-width="1680"
     inkscape:window-height="979"
     inkscape:window-x="-8"
     inkscape:window-y="-8"
     inkscape:window-maximized="1"
     inkscape:current-layer="svg1" />
  <path
     style="fill:#00b0ff;fill-opacity:1;stroke:#00b0ff;stroke-width:0.0209147;stroke-opacity:1"
     d="M 2.3689869,14.076773 C 1.8706562,13.948191 1.455767,13.475957 1.2987212,12.85858 l -0.04669,-0.183546 V 8.1295773 3.5841209 L 1.2974665,3.4024692 C 1.4477106,2.8017837 1.8473477,2.3359566 2.3353888,2.1926407 2.4837497,2.1490737 2.5294566,2.1481453 4.5259531,2.1481453 h 2.0390421 l 0.00781,0.1471897 c 0.020236,0.3818125 0.291704,0.6697507 0.7613384,0.8075329 0.229435,0.067312 0.7743942,0.067057 1.0047381,-4.696e-4 0.4694521,-0.137623 0.739333,-0.42436 0.7596194,-0.8070633 l 0.00781,-0.1471897 H 11.10524 c 2.225621,0 2.100339,-0.00786 2.404497,0.1508179 0.306115,0.1596977 0.582466,0.4953231 0.719322,0.8736127 0.126956,0.3509279 0.120451,0.065018 0.114509,5.032579 l -0.0054,4.5346591 -0.0465,0.161952 c -0.1398,0.486877 -0.431857,0.875381 -0.804201,1.069779 -0.289139,0.150959 0.178225,0.139654 -5.6914867,0.137665 -4.5099927,-0.0015 -5.3260704,-0.0064 -5.4269537,-0.03243 z M 13.031852,12.606684 c 0.118338,-0.07451 0.110733,0.214992 0.116753,-4.4447163 0.0051,-3.9121256 0.0026,-4.3053935 -0.02716,-4.3893626 C 13.060605,3.6010773 13.576112,3.6156224 7.7761164,3.621786 l -5.1963136,0.00552 -0.056167,0.059873 -0.056167,0.059873 v 4.3807464 c 0,4.3503486 2.811e-4,4.3810796 0.040515,4.4287486 0.022283,0.0264 0.058746,0.05595 0.081029,0.06568 0.022283,0.0097 2.3681886,0.01829 5.2131236,0.01904 4.7910666,0.0013 5.1768216,-0.0013 5.2297166,-0.03459 z"
     id="path7" />
  <path
     style="fill:#00b0ff;fill-opacity:1;stroke:#00b0ff;stroke-width:0.0231663;stroke-dasharray:none;stroke-opacity:1"
     d="M 7.5674439,3.2335316 C 7.1711843,3.169539 6.8740713,3.016979 6.6880462,2.7819829 6.3553283,2.3616772 6.5061948,1.767925 7.0141147,1.4987035 7.294,1.350351 7.4379364,1.31884 7.8356952,1.31884 c 0.3872417,0 0.5330856,0.030463 0.8028159,0.1676921 C 9.15715,1.7503957 9.3189084,2.3580814 8.983344,2.7819829 8.7054981,3.1329718 8.1136096,3.3217326 7.5674439,3.2335316 Z"
     id="path8" />
  <ellipse
     style="fill:#ffffff;fill-opacity:1;stroke:#00b0ff;stroke-width:0.0371309;stroke-dasharray:none;stroke-opacity:1"
     id="path9"
     cx="7.8153892"
     cy="2.7419698"
     rx="0.60005635"
     ry="0.63964111" />
  <rect
     style="fill:#ffffff;fill-opacity:1;stroke:#00b0ff;stroke-width:0.0233557;stroke-dasharray:none;stroke-opacity:1"
     id="rect9"
     width="8.154356"
     height="1.5094407"
     x="3.125746"
     y="4.3255024" />
  <rect
     style="fill:#ffffff;fill-opacity:1;stroke:#00b0ff;stroke-width:0.0236649;stroke-dasharray:none;stroke-opacity:1"
     id="rect9-0"
     width="8.2553415"
     height="1.530715"
     x="3.0448666"
     y="7.3474188" />
  <rect
     style="fill:#ffffff;fill-opacity:1;stroke:#00b0ff;stroke-width:0.0180751;stroke-dasharray:none;stroke-opacity:1"
     id="rect9-0-9"
     width="4.9366636"
     height="1.493299"
     x="3.0624166"
     y="10.344696" />
  <path
     style="fill:#00b0ff;fill-opacity:1;stroke:#00b0ff;stroke-width:0.000467499;stroke-dasharray:none;stroke-opacity:1"
     d="M 2.9030201,12.707852 C 2.4738554,12.696208 2.4732818,12.696137 2.4348477,12.641124 2.397654,12.587889 2.3959187,12.438227 2.3829846,8.1666432 l -0.013382,-4.4194 0.069137,-0.076158 0.069137,-0.076158 4.926541,0.00125 c 4.5184634,0.00114 5.5839554,0.011149 5.6813354,0.053346 0.02185,0.00946 0.04117,0.053627 0.05141,0.11752 0.02148,0.133942 0.02019,8.4102568 -0.0013,8.6584948 -0.0091,0.104737 -0.02887,0.208485 -0.04397,0.23055 -0.02224,0.0325 -0.06777,0.0428 -0.239929,0.05426 -0.251374,0.01673 -9.3539589,0.01446 -9.9789027,-0.0024 z m 5.0260771,-1.54866 V 10.467539 H 5.5435011 3.1579047 v 0.691653 0.691654 H 5.5435011 7.9290972 Z M 11.281272,8.1071352 V 7.415482 H 7.219588 3.1579047 v 0.6916532 0.6916532 h 4.0616833 4.061684 z m 0,-3.0520571 V 4.363425 H 7.219588 3.1579047 v 0.6916531 0.6916533 h 4.0616833 4.061684 z"
     id="path10" />
</svg>
