<?xml version="1.0" encoding="UTF-8" standalone="no"?>
<!-- Created with Inkscape (http://www.inkscape.org/) -->

<svg
   version="1.1"
   id="svg1"
   width="16"
   height="16"
   viewBox="0 0 16 16"
   sodipodi:docname="bug.svg"
   inkscape:version="1.3 (0e150ed6c4, 2023-07-21)"
   xmlns:inkscape="http://www.inkscape.org/namespaces/inkscape"
   xmlns:sodipodi="http://sodipodi.sourceforge.net/DTD/sodipodi-0.dtd"
   xmlns="http://www.w3.org/2000/svg"
   xmlns:svg="http://www.w3.org/2000/svg">
  <defs
     id="defs1" />
  <sodipodi:namedview
     id="namedview1"
     pagecolor="#ffffff"
     bordercolor="#000000"
     borderopacity="0.25"
     inkscape:showpageshadow="2"
     inkscape:pageopacity="0.0"
     inkscape:pagecheckerboard="0"
     inkscape:deskcolor="#d1d1d1"
     inkscape:zoom="25.251379"
     inkscape:cx="15.226891"
     inkscape:cy="15.385298"
     inkscape:window-width="1680"
     inkscape:window-height="979"
     inkscape:window-x="-8"
     inkscape:window-y="-8"
     inkscape:window-maximized="1"
     inkscape:current-layer="g1" />
  <g
     inkscape:groupmode="layer"
     inkscape:label="Image"
     id="g1">
    <path
       style="fill:#f50057;fill-opacity:1;stroke:#f50057;stroke-width:0.00577303;stroke-opacity:1"
       d="M 7.7305724,0.29437761 1.8226144,2.9103396 v 3.497746 l 0.08818,1.734177 c 0,0 0.235143,1.14632 0.293929,1.263891 0.05879,0.117572 0.352713,0.9699644 0.352713,0.9699644 0,0 0.4115,0.705428 0.440893,0.822999 0.02939,0.117571 0.352714,0.646642 0.470285,0.793606 0.117571,0.146964 0.499678,0.499678 0.499678,0.499678 l 0.470285,0.440893 0.881785,0.676035 0.764214,0.529071 0.617249,0.323321 0.734821,0.293928 0.382106,0.117571 1.116928,-0.440892 0.852392,-0.440893 0.5878556,-0.470285 0.264536,-0.235142 0.440892,-0.323322 0.323321,-0.382106 0.382107,-0.352714 0.382107,-0.558464 0.323321,-0.529071 0.264535,-0.587856 0.264536,-0.6172504 c 0,0 0.411499,-1.205106 0.470285,-1.35207 0.05879,-0.146964 0.146964,-1.499034 0.146964,-1.499034 l 0.117572,-1.263891 0.02939,-2.939283 z"
       id="path1" />
    <path
       style="fill:#ffffff;fill-opacity:1;stroke:#ffffff;stroke-width:0.00577303;stroke-opacity:1"
       d="m 6.2953674,4.1552296 -0.416543,0.459894 0.807258,0.695035 -0.30758,0.186749 -0.264536,0.323322 -0.146964,0.352713 v 0.117572 h -1.383245 l 0.0018,0.411499 h 1.293284 v 0.881785 l -1.319862,-0.01547 -0.02079,0.394894 1.309384,-0.01039 1e-6,0.956058 -1.267816,0.01039 v 0.37411 h 1.267816 l 0.114311,0.207839 c 0,0 -0.32215,-0.602733 -0.114311,-0.197447 0.207838,0.405285 -0.03118,0.04157 0.21823,0.426069 l 0.301366,0.3948944 c 0.581949,0.498812 0.613125,0.405285 0.613125,0.405285 0,0 -0.280583,-0.06235 0,0.01039 0.280582,0.07274 0.446853,0.06235 0.446853,0.06235 h 0.59234 l 0.384502,-0.02078 0.280582,-0.103919 c 0,0 -0.239015,0.135095 0.114311,-0.114311 0.282216,-0.199212 0.309967,-0.31063 0.436461,-0.4468544 0.135095,-0.145486 0.204548,-0.262684 0.228623,-0.342933 0.03118,-0.10392 0.103919,-0.270191 0.103919,-0.270191 l 1.1950716,-0.01039 v -0.290974 l -1.2054636,-0.03118 -10e-7,-0.976842 1.2574236,0.01039 v -0.363718 l -1.2678156,-0.02078 -0.01039,-0.872922 1.2782076,-2e-6 V 6.3316856 H 9.5471024 c 0,0 -0.02078,-0.04157 -0.07274,-0.21823 -0.05045,-0.171525 -0.124703,-0.332542 -0.124703,-0.332542 l -0.114312,-0.145488 -0.176662,-0.124703 -0.114312,-0.08313 -0.07274,-0.05196 -0.08313,-0.06235 0.831355,-0.779395 -0.42607,-0.436462 -0.883314,0.904098 -1.111937,0.01039 z"
       id="path2"
       sodipodi:nodetypes="cccccccccccccccccccscccsccccsssccccccccccccsccccccccccc" />
    <rect
       style="fill:#f50057;fill-opacity:1;stroke:#f50257;stroke-width:0.00588241;stroke-opacity:1"
       id="rect1"
       width="1.5871034"
       height="0.79349697"
       x="6.9370198"
       y="6.790246" />
    <rect
       style="fill:#f50057;fill-opacity:1;stroke:#f50057;stroke-width:0.00588241;stroke-opacity:1"
       id="rect1-7"
       width="1.5871034"
       height="0.79349697"
       x="6.9682355"
       y="8.0602121"
       inkscape:label="rect2" />
  </g>
</svg>
