<?xml version="1.0" encoding="UTF-8" standalone="no"?>
<svg
   fill="currentColor"
   version="1.1"
   width="16"
   height="16"
   viewBox="0 0 16 16"
   class="octicon octicon-note"
   aria-hidden="true"
   id="svg1"
   sodipodi:docname="question.svg"
   inkscape:version="1.3 (0e150ed6c4, 2023-07-21)"
   xmlns:inkscape="http://www.inkscape.org/namespaces/inkscape"
   xmlns:sodipodi="http://sodipodi.sourceforge.net/DTD/sodipodi-0.dtd"
   xmlns="http://www.w3.org/2000/svg"
   xmlns:svg="http://www.w3.org/2000/svg">
  <defs
     id="defs1" />
  <sodipodi:namedview
     id="namedview1"
     pagecolor="#ffffff"
     bordercolor="#000000"
     borderopacity="0.25"
     inkscape:showpageshadow="2"
     inkscape:pageopacity="0.0"
     inkscape:pagecheckerboard="0"
     inkscape:deskcolor="#d1d1d1"
     inkscape:zoom="46.3125"
     inkscape:cx="8"
     inkscape:cy="8"
     inkscape:window-width="1680"
     inkscape:window-height="979"
     inkscape:window-x="-8"
     inkscape:window-y="-8"
     inkscape:window-maximized="1"
     inkscape:current-layer="svg1" />
  <circle
     style="display:inline;fill:#64dd17;stroke:#64dd17;stroke-width:0.022;fill-opacity:1;stroke-opacity:1"
     id="path3"
     cx="7.8164644"
     cy="8.0323887"
     r="7.7732792" />
  <path
     style="fill:#ffffff;fill-opacity:1;stroke:#64dd17;stroke-width:0.000475034;stroke-opacity:1"
     d="m 7.5704903,12.619021 c -0.4994546,-0.09809 -0.8656958,-0.619563 -0.7835007,-1.115595 0.088861,-0.53626 0.6017724,-0.915867 1.1211901,-0.829797 0.5381916,0.08918 0.9200816,0.608365 0.827705,1.125273 -0.099579,0.55721 -0.6242037,0.926402 -1.1653944,0.820119 z"
     id="path6" />
  <path
     style="fill:#ffffff;fill-opacity:1;stroke:#64dd17;stroke-width:0.000475034;stroke-opacity:1"
     d="M 7.6487233,9.6164275 C 7.418183,9.5825708 7.2179214,9.4329339 7.1102186,9.214053 7.0464107,9.0843781 7.0392084,9.0507729 7.039841,8.8856745 7.0404464,8.7276925 7.0490768,8.6850069 7.1010373,8.5830024 7.2712843,8.2487875 7.5961477,7.9639879 8.2481637,7.5773461 8.3673438,7.5066729 8.5233196,7.3909735 8.5965852,7.3188949 8.7143113,7.2030758 8.7322125,7.174039 8.7557314,7.0607486 8.8090019,6.8041455 8.7395373,6.5772137 8.5576663,6.413696 8.3558387,6.2322356 8.0878102,6.1436497 7.7408907,6.143744 7.232054,6.1438823 6.8839814,6.3280215 6.6855478,6.7020472 6.5966123,6.8696808 6.4838012,6.9858209 6.3327212,7.0652856 6.2310495,7.1187628 6.1962836,7.1252733 6.0134953,7.1250673 5.8400179,7.1248717 5.7917087,7.1166871 5.7004049,7.0720235 5.5392886,6.9932094 5.3819019,6.8256972 5.3239935,6.6713956 5.2543779,6.4858992 5.2658566,6.2465051 5.3528633,6.0693028 5.522405,5.7240051 5.8729671,5.3165358 6.1754386,5.1131977 6.4675344,4.9168347 6.8317853,4.7715108 7.2019239,4.7036643 c 0.2983331,-0.054684 0.8484297,-0.050032 1.1219627,0.00949 0.7970717,0.1734449 1.4037543,0.6158605 1.7091284,1.24636 0.16826,0.347405 0.199199,0.4932878 0.199199,0.9392712 0,0.4493204 -0.03196,0.5984803 -0.20126,0.9392713 C 9.8278109,8.2469748 9.5742558,8.4879376 8.9176348,8.8960864 8.5876357,9.1012103 8.5134314,9.1578269 8.3735432,9.3112194 8.1407052,9.5665347 7.9256397,9.657095 7.6487233,9.6164275 Z"
     id="path7" />
</svg>
