<?xml version="1.0" encoding="UTF-8" standalone="no"?>
<!-- Created with Inkscape (http://www.inkscape.org/) -->

<svg
   version="1.1"
   id="svg1"
   width="16"
   height="16"
   viewBox="0 0 16 16"
   sodipodi:docname="tip.svg"
   inkscape:version="1.3 (0e150ed6c4, 2023-07-21)"
   xmlns:inkscape="http://www.inkscape.org/namespaces/inkscape"
   xmlns:sodipodi="http://sodipodi.sourceforge.net/DTD/sodipodi-0.dtd"
   xmlns="http://www.w3.org/2000/svg"
   xmlns:svg="http://www.w3.org/2000/svg">
  <defs
     id="defs1" />
  <sodipodi:namedview
     id="namedview1"
     pagecolor="#ffffff"
     bordercolor="#000000"
     borderopacity="0.25"
     inkscape:showpageshadow="2"
     inkscape:pageopacity="0.0"
     inkscape:pagecheckerboard="0"
     inkscape:deskcolor="#d1d1d1"
     inkscape:zoom="24.370518"
     inkscape:cx="7.816822"
     inkscape:cy="6.4216936"
     inkscape:window-width="1680"
     inkscape:window-height="979"
     inkscape:window-x="-8"
     inkscape:window-y="-8"
     inkscape:window-maximized="1"
     inkscape:current-layer="g1" />
  <g
     inkscape:groupmode="layer"
     inkscape:label="Image"
     id="g1">
    <path
       style="display:inline;fill:#00bfa5;fill-opacity:1;stroke:#00b0ff;stroke-width:0.00432032"
       d="M 8.9708141,0.59124771 C 8.0335117,1.0242874 8.247182,0.93312077 8.247182,0.93312077 L 7.136094,1.7080336 6.4751396,2.3234053 5.9053507,3.0071527 5.4495191,3.9871893 5.2216034,4.6481437 4.9936886,5.514223 c 0,0 -0.091161,0.9116609 -0.091161,1.0028275 L 4.8569416,7.5882537 5.0620654,8.5454985 5.335564,9.0241208 V 9.2976194 L 5.312777,9.4343687 5.244404,9.5483282 5.084864,9.6167012 H 4.9253222 L 4.6746145,9.5711155 4.5150744,9.3887836 4.3783252,9.1836597 4.1732001,8.8873693 4.0364509,8.5454961 3.8769109,8.226415 3.7857386,7.8161673 3.7629513,7.4515022 3.6945777,6.9956706 3.7401639,6.6310066 3.8085374,6.1295924 3.9224971,5.81051 3.9680832,5.3318877 3.9908705,5.1951383 3.8996981,5.172351 3.6717835,5.3774749 3.4894504,5.6737643 3.2843265,5.8788881 3.0564119,6.1295958 2.6917468,6.6310101 2.3270818,7.2919644 2.1903326,7.7477949 l -0.088526,0.4880643 -0.07102,0.5831389 -0.03752,0.4384511 -0.00808,0.8834588 0.045587,0.638164 0.182332,0.706537 0.1823329,0.478623 0.4330386,0.820495 0.7293303,0.888871 0.72933,0.660955 0.7065369,0.410248 0.2962905,0.113959 0.5925809,0.227917 c 0,0 0.4102478,0.09118 0.546997,0.113959 0.1367492,0.02279 0.6493156,0.112561 0.6979906,0.108263 l 0.4415861,0.0086 0.546997,-0.0029 0.6153728,-0.04559 0.6609543,-0.11396 c 0,0 0.3418737,-0.06838 0.4558322,-0.06838 0.113959,0 0.6381613,-0.250708 0.6381613,-0.250708 l 0.512811,-0.276347 0.760669,-0.538451 0.641011,-0.712235 0.43304,-0.660955 0.319081,-0.706537 0.18803,-0.871777 0.06267,-0.814799 L 13.358159,9.5255028 13.175827,8.7733819 12.947911,8.1580103 12.492081,7.4286801 12.081832,6.927267 11.512044,6.4258528 10.987838,6.0839797 10.532007,5.7421064 10.12176,5.3546495 9.6887211,4.8532352 9.415222,4.4885713 9.1873061,4.0555329 9.0277651,3.5997012 8.9138054,3.0071215 8.9109165,2.1780785 9.0049314,1.6396278 9.2100554,1.0242561 9.2983734,0.5883681 9.2328428,0.38609263 Z"
       id="path1"
       sodipodi:nodetypes="ccccccccscccccccccccccccccccccccccccccccccccccccccccscccccscccccccccccccccccccccccccccc" />
    <path
       style="fill:#ffffff;fill-opacity:1;stroke:#00b0ff;stroke-width:0.00432032"
       d="M 8.1469537,7.1919603 C 8.1308343,7.2886565 8.0341381,7.5787459 8.0341381,7.5787459 l -0.06849,0.2860593 -0.012087,0.2618865 c 0,0 -0.012087,0.2739734 0.020142,0.3706691 0.032229,0.096696 0.076555,0.2417408 0.092663,0.3384378 0.016119,0.096696 0.064467,0.2256244 0.096696,0.306205 0.032229,0.080576 0.080576,0.2739722 0.1128156,0.3545528 0.032229,0.080576 0.064467,0.2095093 0.064467,0.2739734 v 0.2578572 l -0.020141,0.269944 -0.044315,0.19742 -0.080576,0.257858 c 0,0 -0.064467,0.145044 -0.080576,0.209509 -0.016119,0.06447 -0.096696,0.209507 -0.096696,0.209507 L 7.877024,11.386164 7.7601824,11.547325 c 0,0 -0.1450449,0.157131 -0.2095091,0.205479 -0.064468,0.04834 -0.1289285,0.0967 -0.2095081,0.161162 -0.080576,0.06447 -0.1651894,0.124899 -0.2336831,0.16116 -0.076706,0.04061 -0.1369861,0.04834 -0.2497995,0.0967 -0.1128156,0.04834 -0.209508,0.08057 -0.209508,0.08057 l -0.1289284,0.0967 0.1128155,0.06447 0.2739734,0.128929 0.2417409,0.128927 c 0,0 0.1128155,0.04834 0.1772763,0.08059 0.064468,0.03222 0.2578571,0.0967 0.2578571,0.0967 l 0.294118,0.06849 0.3585823,0.04029 c 0,0 0.1872742,-0.0053 0.2739734,-0.01209 0.082413,-0.0066 0.2659146,-0.04834 0.2659146,-0.04834 l 0.306205,-0.0967 0.2256245,-0.128928 0.2095091,-0.128929 0.1611607,-0.145043 0.1772776,-0.177277 0.1611604,-0.257857 0.120869,-0.213538 c 0,0 0.104751,-0.209509 0.12087,-0.273973 0.01612,-0.06447 0.08865,-0.273973 0.08865,-0.273973 l 0.04834,-0.217567 0.008,-0.278002 v -0.2901 L 10.366994,10.15731 10.274331,9.86722 10.145402,9.5932477 9.9842425,9.3192742 9.8311395,9.146026 9.6296884,8.948605 9.4201793,8.7552122 9.2106713,8.5779357 8.9689306,8.3845429 8.7271887,8.1428022 8.5337959,7.9010615 8.4088968,7.7278132 8.3363748,7.6311175 8.2638529,7.5142758 8.2275921,7.369231 Z"
       id="path2"
       sodipodi:nodetypes="ccccsssssccccscccsssscccccscccsccccccccscccccccccccccccccccc" />
  </g>
</svg>
