<svg xmlns="http://www.w3.org/2000/svg" enable-background="new 0 0 47.5 47.5" viewBox="0 0 47.5 47.5" id="c"><defs><clipPath id="a"><path d="M0 38h38V0H0v38Z"></path></clipPath></defs><g clip-path="url(#a)" transform="matrix(1.25 0 0 -1.25 0 47.5)"><path fill="#3b88c3" d="M0 0a4 4 0 0 0-4-4h-28a4 4 0 0 0-4 4v28a4 4 0 0 0 4 4h28a4 4 0 0 0 4-4V0Z" transform="translate(37 5)"></path><path fill="#fff" d="M0 0c2.264 0 6.666-.744 6.666-3.473 0-1.116-.775-2.077-1.922-2.077C3.473-5.55 2.605-4.465 0-4.465c-3.844 0-5.829-3.256-5.829-7.038 0-3.689 2.016-6.852 5.829-6.852 2.605 0 3.658 1.301 4.93 1.301 1.396 0 2.047-1.394 2.047-2.107 0-2.977-4.682-3.659-6.977-3.659-6.294 0-10.666 4.992-10.666 11.41C-10.666-4.961-6.325 0 0 0" transform="translate(20.723 30.448)"></path></g></svg>