<?xml version="1.0" encoding="UTF-8" standalone="no"?>
<!-- Created with Inkscape (http://www.inkscape.org/) -->

<svg
   version="1.1"
   id="svg1"
   width="770"
   height="808"
   viewBox="0 0 770 808"
   sodipodi:docname="2.svg"
   inkscape:version="1.3 (0e150ed6c4, 2023-07-21)"
   xmlns:inkscape="http://www.inkscape.org/namespaces/inkscape"
   xmlns:sodipodi="http://sodipodi.sourceforge.net/DTD/sodipodi-0.dtd"
   xmlns="http://www.w3.org/2000/svg"
   xmlns:svg="http://www.w3.org/2000/svg">
  <defs
     id="defs1" />
  <sodipodi:namedview
     id="namedview1"
     pagecolor="#ffffff"
     bordercolor="#000000"
     borderopacity="0.25"
     inkscape:showpageshadow="2"
     inkscape:pageopacity="0.0"
     inkscape:pagecheckerboard="0"
     inkscape:deskcolor="#d1d1d1"
     inkscape:zoom="0.91707921"
     inkscape:cx="385.46289"
     inkscape:cy="404"
     inkscape:window-width="1680"
     inkscape:window-height="979"
     inkscape:window-x="-8"
     inkscape:window-y="-8"
     inkscape:window-maximized="1"
     inkscape:current-layer="g1" />
  <g
     inkscape:groupmode="layer"
     inkscape:label="Image"
     id="g1">
    <path
       style="fill:#239dad;stroke-width:1.67323;fill-opacity:1"
       d="M 142.8448,249.44173 C 116.93605,248.18681 99.277357,242.39603 81.419727,229.29875 66.810344,218.58382 54.56234,202.54248 48.151816,185.72741 c -6.174701,-16.19649 -6.579602,-18.54128 -6.557693,-37.97572 0.01717,-15.2335 0.362371,-18.99496 2.251575,-24.53442 3.329645,-9.76306 11.8075,-26.421578 16.132765,-31.699993 2.096055,-2.55796 3.811011,-5.082032 3.811011,-5.609048 0,-0.527016 -2.008026,-2.897876 -4.462281,-5.268577 C 46.503627,68.25265 44.686055,59.680994 52.48044,48.350406 c 2.983876,-4.337619 6.467769,-6.172571 12.399452,-6.530739 8.338715,-0.503511 10.798277,0.128614 14.417109,3.705299 1.972092,1.949123 6.388614,6.175992 9.814495,9.393043 l 6.228874,5.849184 4.74766,-2.782312 c 5.62072,-3.293965 20.34848,-8.634595 34.03343,-12.341319 17.62304,-4.773405 42.01966,-5.535095 57.24696,-1.787315 17.04931,4.196219 37.47458,16.803349 46.05787,28.428393 10.36484,14.037966 17.58069,29.99561 20.91476,46.25239 2.6155,12.75302 2.38982,43.70811 -0.39813,54.60886 -8.609,33.6609 -32.26061,58.1284 -68.75534,71.12711 -9.03655,3.21865 -32.52268,5.83811 -46.34278,5.16873 z m 29.98651,-41.56803 c 19.11857,-4.93838 34.55171,-16.91931 42.33036,-32.86155 6.77429,-13.88384 8.09509,-25.35313 5.14847,-44.70716 -2.73632,-17.97274 -10.23323,-32.51163 -20.35267,-39.47032 -17.3084,-11.902221 -34.92822,-13.441455 -61.07078,-5.335031 -16.30853,5.057035 -19.5118,6.465812 -28.90931,12.714098 -11.676604,7.763633 -19.001584,15.944953 -24.562749,27.434303 -4.00867,8.2819 -4.552992,10.36949 -5.016825,19.2406 -0.660929,12.64066 0.918335,20.21542 6.574682,31.5347 8.922748,17.8559 26.270382,30.15694 47.148972,33.4329 9.49909,1.49044 29.16338,0.48333 38.70985,-1.98254 z"
       id="path1" />
    <path
       style="fill:#239dad;stroke-width:1.67323;fill-opacity:1"
       d="m 153.20378,183.54534 c 0,-5.05246 -3.51789,-18.77552 -6.17335,-24.08187 -3.93032,-7.85387 -11.20115,-12.50431 -22.53038,-14.41047 l -4.16932,-0.7015 2.97025,-4.0246 c 5.31583,-7.2028 11.76677,-13.3496 19.2624,-18.35425 9.37899,-6.26214 16.24944,-7.32275 24.31729,-3.75396 6.5529,2.89866 8.86305,4.93121 11.51876,10.13463 2.78825,5.46308 2.59718,12.14843 -0.64006,22.39612 -2.944,9.3194 -12.09374,23.57183 -20.09333,31.29912 -4.41005,4.25993 -4.46226,4.27744 -4.46226,1.49678 z"
       id="path2" />
    <path
       style="fill:#239dad;stroke-width:1.67323;fill-opacity:1"
       d="M 423.08232,796.92184 C 376.10349,794.11201 335.47589,777.19713 315.21879,752.014 305.0275,739.34443 297.60304,723.70966 293.18839,705.62136 286.87165,679.73955 286.95792,681.13404 286.30043,594.278 l -0.61082,-80.69096 -2.72605,-0.31792 c -8.23507,-0.96042 -56.32159,-18.8468 -71.4224,-26.56646 -17.69071,-9.04364 -26.60628,-14.02185 -36.87011,-20.58725 l -11.79049,-7.54195 -8.38225,4.2378 c -18.08177,9.14156 -28.69827,12.99779 -40.81502,14.82524 -21.082256,3.17961 -30.607948,1.68323 -33.936441,-5.33105 -2.178432,-4.5907 -2.226046,-6.49151 -0.257945,-10.2974 3.135147,-6.0627 5.368244,-7.07261 18.858109,-8.52847 16.375947,-1.76733 21.053797,-2.58104 21.053797,-3.66226 0,-0.48345 -6.01093,-1.95731 -13.35763,-3.27525 -18.516926,-3.3218 -21.422658,-4.1652 -24.314884,-7.05743 -4.066867,-4.06686 -4.54964,-9.65483 -1.263183,-14.621 4.541566,-6.86277 7.621462,-7.51058 23.052037,-4.84867 7.23669,1.24839 13.40296,2.03949 13.70282,1.758 0.29987,-0.28149 -0.92685,-1.74565 -2.72604,-3.25369 -1.79919,-1.50805 -6.29084,-5.26913 -9.98144,-8.35798 -3.69061,-3.08885 -7.248095,-6.74322 -7.905537,-8.12084 -4.511256,-9.45295 5.175777,-21.25705 14.526947,-17.70174 2.92725,1.11294 9.76315,6.15909 18.39096,13.57591 18.73471,16.10513 19.78829,16.90197 20.61895,15.59461 0.46515,-0.7321 0.85569,-10.16349 0.86785,-20.95863 0.0211,-18.74409 0.1323,-19.75701 2.47014,-22.50403 3.48024,-4.0894 8.78035,-5.61551 14.03489,-4.0412 8.1879,2.45315 8.00254,1.60965 8.35884,38.03717 l 0.31817,32.52955 9.49559,6.34013 c 16.7908,11.21108 48.35375,27.06129 67.03781,33.66487 23.23432,8.2118 29.61398,10.29469 31.53143,10.29469 1.891,0 1.97629,-3.62368 1.97629,-83.96221 v -83.96221 h -31.62213 -31.62214 v -2.81244 c 0,-1.54684 -1.99593,-11.4656 -4.43542,-22.04167 -4.95616,-21.48691 -5.0119,-21.08571 3.12951,-22.52578 2.21757,-0.39226 12.37366,-3.37267 22.56907,-6.62316 10.19541,-3.25049 23.81201,-7.47773 30.25911,-9.39387 l 11.722,-3.4839 0.004,-30.62167 0.004,-30.62167 5.17539,-2.08746 c 2.84648,-1.1481 10.32763,-4.49779 16.62479,-7.44374 6.29717,-2.94596 19.05507,-8.78827 28.35088,-12.9829 9.29582,-4.19464 21.41254,-9.80001 26.92605,-12.45639 5.51351,-2.65638 10.41994,-4.82978 10.90319,-4.82978 0.48325,0 7.25803,-2.99786 15.05507,-6.66191 29.26396,-13.752 39.32599,-18.33167 41.70948,-18.98381 l 2.45345,-0.67128 v 67.13421 67.13421 l 6.81511,0.002 c 3.74831,9.4e-4 22.02645,-1.24717 40.61808,-2.77357 18.59164,-1.5264 48.25283,-3.96516 65.91377,-5.41947 17.66093,-1.45432 32.3033,-2.4517 32.5386,-2.21641 0.23529,0.2353 -1.10086,9.42027 -2.96925,20.41103 -1.86839,10.99076 -3.89984,23.17269 -4.51434,27.07093 -0.61451,3.89825 -2.12271,12.48529 -3.35157,19.08232 l -2.23429,11.99461 -18.70225,-0.75842 c -10.28625,-0.41713 -30.96946,-1.274 -45.96272,-1.90416 -14.99325,-0.63016 -36.46086,-1.46862 -47.7058,-1.86323 l -20.44534,-0.71748 v 80.68826 80.68826 l 6.81511,-1.28883 c 14.91685,-2.82101 29.34125,-6.47836 43.88934,-11.12829 37.05476,-11.84361 58.10065,-20.28516 90.78515,-36.4141 12.43983,-6.13872 14.44842,-7.69166 14.42224,-11.15048 -0.01,-1.30655 1.80085,-8.50916 4.02387,-16.00578 4.59582,-15.49832 10.64506,-26.59245 19.47208,-35.71121 5.12026,-5.28947 5.92672,-5.72469 10.60801,-5.72469 2.78656,0 6.28966,0.55732 7.78467,1.23849 2.59289,1.18141 6.10776,7.72889 6.10776,11.37754 0,2.88456 -3.3792,8.45426 -8.43203,13.89794 -2.6806,2.88795 -4.58899,5.53565 -4.24085,5.88377 0.34813,0.34813 3.51843,-0.66196 7.04511,-2.24463 8.77105,-3.93622 21.88533,-6.49368 30.48922,-5.94584 6.18546,0.39387 7.37279,0.83554 9.53465,3.54676 3.41093,4.27772 4.11665,8.80223 2.0517,13.15378 -2.88892,6.08795 -5.21434,7.38058 -15.90916,8.84344 -9.79494,1.33977 -21.62906,5.21196 -21.62906,7.07714 0,0.53008 9.59279,0.96378 21.31731,0.96378 16.7798,0 21.98799,0.34683 24.46822,1.6294 10.18368,5.26619 8.22359,20.27923 -3.0567,23.41224 -2.21043,0.61393 -10.35704,1.11898 -18.10355,1.12232 -7.74651,0.003 -13.72551,0.36513 -13.28666,0.80398 0.43885,0.43885 5.24466,1.64609 10.67959,2.68274 10.52895,2.00828 12.814,3.33957 15.52001,9.04205 2.19885,4.63372 1.24981,9.47813 -2.6812,13.68628 -3.59506,3.84853 -8.40655,4.19585 -22.31721,1.61098 -10.50281,-1.95162 -30.99863,-11.66613 -42.42755,-20.10962 -5.55431,-4.10343 -8.13321,-5.38398 -9.81376,-4.87305 -1.25379,0.38119 -7.43183,3.25255 -13.729,6.38082 -29.11355,14.46284 -74.12408,32.23842 -100.8637,39.83314 -9.68242,2.75004 -42.78038,9.80506 -46.07017,9.82012 l -2.45344,0.0112 0.009,65.1525 c 0.005,36.63719 0.49139,69.44769 1.11125,74.96626 1.38779,12.35536 4.70342,25.58572 8.25932,32.95708 7.1283,14.77693 26.33104,23.06886 53.63812,23.16142 12.94185,0.0439 24.20968,-2.01817 36.68923,-6.7142 4.83437,-1.81916 10.75251,-4.02532 13.15144,-4.90255 7.18496,-2.62739 32.25341,-15.5994 39.05399,-20.20903 3.48779,-2.36412 7.01963,-4.03816 7.84852,-3.72008 0.82889,0.31807 2.3246,2.19829 3.32378,4.17828 0.99918,1.97998 4.36784,7.77081 7.48591,12.86851 3.11807,5.09771 7.24442,11.89551 9.16968,15.10622 l 3.50047,5.83767 -5.11603,4.52131 c -2.81381,2.48672 -6.4354,5.50268 -8.04796,6.70215 -1.61257,1.19946 -7.78607,5.83769 -13.71888,10.3072 -24.59667,18.52996 -47.60759,33.09303 -74.0312,46.85257 -10.96807,5.71139 -31.34726,13.39017 -43.68631,16.46078 -12.02186,2.99167 -33.30479,5.71349 -40.82111,5.22049 -1.49933,-0.0983 -5.17949,-0.32555 -8.17814,-0.5049 z"
       id="path3" />
    <path
       style="fill:#239dad;stroke-width:1.67323;fill-opacity:1"
       d="m 562.65587,219.73761 c -29.92791,-3.18274 -52.85736,-13.52852 -67.43406,-30.42632 -5.90468,-6.84489 -13.38788,-21.56809 -17.24356,-33.92667 -2.36365,-7.57618 -2.54852,-9.98404 -2.51168,-32.71256 0.0382,-23.591651 0.14756,-24.828839 2.84505,-32.196706 6.50051,-17.755333 10.54327,-24.243447 22.70396,-36.436987 6.31458,-6.331628 13.19846,-12.433055 15.29751,-13.558725 2.09906,-1.125669 6.77389,-3.68669 10.38851,-5.691156 7.71007,-4.275565 24.47889,-9.639437 37.58484,-12.022327 14.50783,-2.637776 37.08884,-3.154248 46.89305,-1.072534 9.22195,1.958085 23.51159,7.376722 29.85703,11.321799 5.99849,3.729374 16.04683,12.059189 18.57913,15.401615 1.18034,1.557943 3.66759,4.562644 5.52723,6.677114 3.60306,4.096782 11.66197,19.006652 14.33259,26.516862 2.55307,7.179597 4.7696,20.948835 5.49641,34.143945 0.78738,14.2946 -1.74068,34.43901 -5.52077,43.99133 -11.97492,30.26069 -38.27442,50.8679 -74.45737,58.34169 -9.97489,2.06037 -30.83341,2.87309 -42.33787,1.64963 z m 45.05626,-43.06364 c 22.7048,-7.55878 35.21895,-22.47734 37.29927,-44.46575 3.42607,-36.212813 -8.32883,-60.598803 -33.61039,-69.726095 -4.98811,-1.800834 -8.80836,-2.242285 -19.30384,-2.230661 -16.98751,0.01881 -33.60289,3.11932 -46.33957,8.64717 -11.53558,5.006568 -23.68998,17.94211 -28.63809,30.478623 -3.24918,8.232123 -4.49876,21.777213 -3.10177,33.622443 1.74055,14.75842 6.12039,25.03186 14.17432,33.24764 5.25532,5.36092 7.33677,6.64035 14.83628,9.11955 12.91348,4.26897 18.90306,4.99814 38.16464,4.64621 15.65862,-0.28611 18.37652,-0.62832 26.51915,-3.33913 z"
       id="path4" />
    <path
       style="fill:#239dad;stroke-width:1.67323;fill-opacity:1"
       d="m 580.30444,157.56545 c -0.28254,-0.89959 -1.1141,-4.57975 -1.84792,-8.17814 -2.28672,-11.21336 -6.25399,-19.63863 -11.543,-24.51388 -5.18202,-4.77662 -7.80357,-6.06033 -15.93933,-7.80514 -2.87089,-0.6157 -5.2198,-1.61735 -5.2198,-2.22589 0,-1.75192 20.89293,-22.174903 24.69569,-24.140204 14.25369,-7.366442 30.71932,-2.726911 36.29146,10.225864 3.97566,9.24169 1.68017,19.48702 -8.10854,36.19026 -5.79559,9.88947 -17.53219,22.98269 -18.32856,20.44713 z"
       id="path5" />
  </g>
</svg>
