<?xml version="1.0" encoding="UTF-8" standalone="no"?>
<!-- Created with Inkscape (http://www.inkscape.org/) -->

<svg
   width="16"
   height="16"
   viewBox="0 0 16 16"
   version="1.1"
   id="svg1"
   inkscape:version="1.3 (0e150ed6c4, 2023-07-21)"
   sodipodi:docname="note.svg"
   xmlns:inkscape="http://www.inkscape.org/namespaces/inkscape"
   xmlns:sodipodi="http://sodipodi.sourceforge.net/DTD/sodipodi-0.dtd"
   xmlns="http://www.w3.org/2000/svg"
   xmlns:svg="http://www.w3.org/2000/svg">
  <sodipodi:namedview
     id="namedview1"
     pagecolor="#ffffff"
     bordercolor="#000000"
     borderopacity="0.25"
     inkscape:showpageshadow="2"
     inkscape:pageopacity="0.0"
     inkscape:pagecheckerboard="0"
     inkscape:deskcolor="#d1d1d1"
     inkscape:document-units="mm"
     inkscape:zoom="32"
     inkscape:cx="8.609375"
     inkscape:cy="8.890625"
     inkscape:window-width="1680"
     inkscape:window-height="979"
     inkscape:window-x="-8"
     inkscape:window-y="-8"
     inkscape:window-maximized="1"
     inkscape:current-layer="layer1" />
  <defs
     id="defs1" />
  <g
     inkscape:label="图层 1"
     inkscape:groupmode="layer"
     id="layer1">
    <circle
       style="fill:#448aff;fill-opacity:1;stroke:#448aff;stroke-width:0.0243014"
       id="path2"
       cx="7.808054"
       cy="7.7117653"
       r="6.7273726" />
    <g
       transform="matrix(0.48811337,0,0,0.48811337,2.1932091,2.0828443)"
       id="g2">
      <path
         style="fill:#ffffff;fill-opacity:1;stroke:#448aff;stroke-width:0.707107"
         d="m 279.87785,641.98738 c 0.24024,-3.46411 0.82516,-15.42855 1.29982,-26.58765 l 0.86302,-20.28927 51.16865,-63.85644 c 28.14275,-35.12104 51.60704,-64.29819 52.14285,-64.83812 0.82967,-0.83602 2.94931,0.63382 14.28619,9.90663 14.50015,11.86016 27.45479,22.1091 33.29545,26.3414 l 3.72001,2.69562 -2.65935,3.33216 c -1.46265,1.83269 -25.00147,31.17945 -52.30852,65.21502 l -49.64916,61.88285 -24.9506,5.90575 c -13.72283,3.24817 -25.55688,6.05981 -26.29789,6.2481 -1.27324,0.32351 -1.32328,-0.004 -0.91047,-5.95605 z"
         id="path3"
         transform="matrix(0.05357398,0,0,0.05357398,-8.5883239,-16.545972)" />
      <path
         style="fill:#ffffff;fill-opacity:1;stroke:#448aff;stroke-width:0.707107"
         d="m 441.58818,481.34743 c -4.47245,-3.40297 -12.2683,-9.55415 -17.32411,-13.66929 -5.05581,-4.11515 -12.53347,-9.95538 -16.61701,-12.9783 -4.08354,-3.02292 -7.51721,-5.73737 -7.63037,-6.0321 -0.39357,-1.02507 23.90912,-30.38567 26.08068,-31.50863 1.36655,-0.70667 2.91852,-0.94965 4.22824,-0.66198 1.89536,0.41629 40.16131,31.47279 43.25916,35.10896 0.68059,0.79886 1.23743,2.51674 1.23743,3.81752 0,1.99721 -1.84206,4.67302 -11.84403,17.20483 -6.51423,8.16188 -12.16224,14.85473 -12.55115,14.87299 -0.38891,0.0183 -4.36638,-2.75103 -8.83884,-6.154 z"
         id="path4"
         transform="matrix(0.05357398,0,0,0.05357398,-8.5883239,-16.545972)" />
    </g>
  </g>
</svg>
