<?xml version="1.0" encoding="UTF-8" standalone="no"?>
<svg
   width="16"
   height="16"
   viewBox="0 0 16 16"
   version="1.1"
   id="svg1"
   sodipodi:docname="warning.svg"
   inkscape:version="1.3 (0e150ed6c4, 2023-07-21)"
   xmlns:inkscape="http://www.inkscape.org/namespaces/inkscape"
   xmlns:sodipodi="http://sodipodi.sourceforge.net/DTD/sodipodi-0.dtd"
   xmlns="http://www.w3.org/2000/svg"
   xmlns:svg="http://www.w3.org/2000/svg">
  <defs
     id="defs1" />
  <sodipodi:namedview
     id="namedview1"
     pagecolor="#ffffff"
     bordercolor="#000000"
     borderopacity="0.25"
     inkscape:showpageshadow="2"
     inkscape:pageopacity="0.0"
     inkscape:pagecheckerboard="0"
     inkscape:deskcolor="#d1d1d1"
     inkscape:zoom="46.3125"
     inkscape:cx="8"
     inkscape:cy="8"
     inkscape:window-width="1680"
     inkscape:window-height="979"
     inkscape:window-x="-8"
     inkscape:window-y="-8"
     inkscape:window-maximized="1"
     inkscape:current-layer="svg1" />
  <path
     style="fill:#ff9100;fill-opacity:1;stroke:#ff9100;stroke-width:0.000475034;stroke-opacity:1"
     d="M 0.81538798,14.963258 C 0.63378658,14.923804 0.44182495,14.817698 0.30560505,14.681478 0.00837498,14.384248 -0.07141714,13.947087 0.10683039,13.592443 0.12772155,13.550877 1.7203283,10.806886 3.6459565,7.4946844 7.4347884,0.97765495 7.2488734,1.2825014 7.5239689,1.135877 7.9389145,0.91471325 8.4659625,1.0068953 8.76582,1.35308 c 0.1020764,0.1178469 7.100357,12.142787 7.160754,12.304113 0.208409,0.556682 -0.14256,1.182412 -0.73346,1.30766 -0.209998,0.04451 -14.1726368,0.04296 -14.37772602,-0.0016 z M 9.0364372,11.994602 v -1.014845 h -1.025641 -1.025641 v 1.014845 1.014845 h 1.025641 1.025641 z m 0,-4.0053982 V 5.9703104 h -1.025641 -1.025641 v 2.0188934 2.0188932 h 1.025641 1.025641 z"
     id="path7"
     inkscape:label="path1" />
  <path
     style="fill:#fff4e5;stroke:#fff4e5;stroke-width:0.000475034;stroke-opacity:1;fill-opacity:1"
     d="m 7.0067476,7.9892038 v -1.997301 h 1.0040486 1.0040486 v 1.997301 1.9973009 H 8.0107962 7.0067476 Z"
     id="path5"
     inkscape:label="path2" />
  <path
     style="fill:#fff4e5;stroke:#fff4e5;stroke-width:0.000475034;fill-opacity:1;stroke-opacity:1"
     d="M 7.0067476,11.994602 V 11.00135 h 1.0040486 1.0040486 v 0.993252 0.993252 H 8.0107962 7.0067476 Z"
     id="path6"
     inkscape:label="path3" />
</svg>
